<mxfile host="app.diagrams.net" agent="Mozilla/5.0 (Windows NT 10.0; Win64; x64) AppleWebKit/537.36 (KHTML, like Gecko) Chrome/128.0.0.0 Safari/537.36" version="24.7.8">
  <diagram name="Page-1" id="fVPCt6A0FaTb8haAH9xS">
    <mxGraphModel dx="600" dy="323" grid="1" gridSize="10" guides="1" tooltips="1" connect="1" arrows="1" fold="1" page="1" pageScale="1" pageWidth="827" pageHeight="1169" math="0" shadow="0">
      <root>
        <mxCell id="0" />
        <mxCell id="1" parent="0" />
        <mxCell id="F9UBOT8fLvM2I1Nvsxj9-2" style="rounded=0;orthogonalLoop=1;jettySize=auto;html=1;exitX=0;exitY=0;exitDx=0;exitDy=0;entryX=1;entryY=0.5;entryDx=0;entryDy=0;endArrow=none;endFill=0;" parent="1" source="F9UBOT8fLvM2I1Nvsxj9-6" target="F9UBOT8fLvM2I1Nvsxj9-19" edge="1">
          <mxGeometry relative="1" as="geometry" />
        </mxCell>
        <mxCell id="F9UBOT8fLvM2I1Nvsxj9-3" style="rounded=0;orthogonalLoop=1;jettySize=auto;html=1;entryX=1;entryY=1;entryDx=0;entryDy=0;endArrow=none;endFill=0;exitX=0;exitY=0.5;exitDx=0;exitDy=0;" parent="1" source="F9UBOT8fLvM2I1Nvsxj9-6" target="F9UBOT8fLvM2I1Nvsxj9-20" edge="1">
          <mxGeometry relative="1" as="geometry">
            <mxPoint x="561.19" y="602.95" as="sourcePoint" />
          </mxGeometry>
        </mxCell>
        <mxCell id="F9UBOT8fLvM2I1Nvsxj9-5" style="edgeStyle=orthogonalEdgeStyle;rounded=0;orthogonalLoop=1;jettySize=auto;html=1;exitX=0.5;exitY=0;exitDx=0;exitDy=0;entryX=0.5;entryY=1;entryDx=0;entryDy=0;endArrow=none;endFill=0;shape=link;" parent="1" source="F9UBOT8fLvM2I1Nvsxj9-6" target="F9UBOT8fLvM2I1Nvsxj9-164" edge="1">
          <mxGeometry relative="1" as="geometry" />
        </mxCell>
        <mxCell id="Zon8c4V3Af2gcsS17Kv6-4" style="rounded=0;orthogonalLoop=1;jettySize=auto;html=1;exitX=0;exitY=0.75;exitDx=0;exitDy=0;entryX=1;entryY=0.5;entryDx=0;entryDy=0;endArrow=none;endFill=0;dashed=1;" edge="1" parent="1" source="F9UBOT8fLvM2I1Nvsxj9-6" target="Zon8c4V3Af2gcsS17Kv6-3">
          <mxGeometry relative="1" as="geometry" />
        </mxCell>
        <mxCell id="F9UBOT8fLvM2I1Nvsxj9-6" value="Form" style="rounded=0;whiteSpace=wrap;html=1;" parent="1" vertex="1">
          <mxGeometry x="580" y="595.33" width="120" height="40" as="geometry" />
        </mxCell>
        <mxCell id="F9UBOT8fLvM2I1Nvsxj9-19" value="&lt;u&gt;Id&lt;/u&gt;" style="ellipse;whiteSpace=wrap;html=1;" parent="1" vertex="1">
          <mxGeometry x="470" y="540.92" width="45.65" height="22.83" as="geometry" />
        </mxCell>
        <mxCell id="F9UBOT8fLvM2I1Nvsxj9-20" value="Date" style="ellipse;whiteSpace=wrap;html=1;" parent="1" vertex="1">
          <mxGeometry x="456.87" y="570.0000000000001" width="70" height="29.83" as="geometry" />
        </mxCell>
        <mxCell id="F9UBOT8fLvM2I1Nvsxj9-43" style="rounded=0;orthogonalLoop=1;jettySize=auto;html=1;exitX=1;exitY=0.5;exitDx=0;exitDy=0;entryX=0;entryY=1;entryDx=0;entryDy=0;endArrow=none;endFill=0;" parent="1" source="F9UBOT8fLvM2I1Nvsxj9-44" target="F9UBOT8fLvM2I1Nvsxj9-6" edge="1">
          <mxGeometry relative="1" as="geometry" />
        </mxCell>
        <mxCell id="F9UBOT8fLvM2I1Nvsxj9-44" value="Language" style="ellipse;whiteSpace=wrap;html=1;" parent="1" vertex="1">
          <mxGeometry x="470" y="642.46" width="63.75" height="26.79" as="geometry" />
        </mxCell>
        <mxCell id="F9UBOT8fLvM2I1Nvsxj9-139" style="edgeStyle=orthogonalEdgeStyle;rounded=0;orthogonalLoop=1;jettySize=auto;html=1;exitX=0.25;exitY=1;exitDx=0;exitDy=0;entryX=0.5;entryY=0;entryDx=0;entryDy=0;endArrow=none;endFill=0;" parent="1" source="F9UBOT8fLvM2I1Nvsxj9-140" target="F9UBOT8fLvM2I1Nvsxj9-164" edge="1">
          <mxGeometry relative="1" as="geometry">
            <Array as="points">
              <mxPoint x="680" y="480" />
              <mxPoint x="640" y="480" />
              <mxPoint x="640" y="495" />
            </Array>
          </mxGeometry>
        </mxCell>
        <mxCell id="F9UBOT8fLvM2I1Nvsxj9-140" value="Admin" style="rounded=0;whiteSpace=wrap;html=1;" parent="1" vertex="1">
          <mxGeometry x="650" y="420" width="120" height="40" as="geometry" />
        </mxCell>
        <mxCell id="F9UBOT8fLvM2I1Nvsxj9-146" style="rounded=0;orthogonalLoop=1;jettySize=auto;html=1;exitX=1;exitY=0;exitDx=0;exitDy=0;entryX=0;entryY=1;entryDx=0;entryDy=0;endArrow=none;endFill=0;" parent="1" source="F9UBOT8fLvM2I1Nvsxj9-151" target="F9UBOT8fLvM2I1Nvsxj9-152" edge="1">
          <mxGeometry relative="1" as="geometry" />
        </mxCell>
        <mxCell id="F9UBOT8fLvM2I1Nvsxj9-147" style="rounded=0;orthogonalLoop=1;jettySize=auto;html=1;exitX=1;exitY=0.5;exitDx=0;exitDy=0;entryX=0;entryY=0.5;entryDx=0;entryDy=0;endArrow=none;endFill=0;" parent="1" source="F9UBOT8fLvM2I1Nvsxj9-151" target="F9UBOT8fLvM2I1Nvsxj9-154" edge="1">
          <mxGeometry relative="1" as="geometry" />
        </mxCell>
        <mxCell id="Zon8c4V3Af2gcsS17Kv6-2" style="rounded=0;orthogonalLoop=1;jettySize=auto;html=1;exitX=1;exitY=0.75;exitDx=0;exitDy=0;entryX=0;entryY=0.5;entryDx=0;entryDy=0;endArrow=none;endFill=0;dashed=1;" edge="1" parent="1" source="F9UBOT8fLvM2I1Nvsxj9-151" target="Zon8c4V3Af2gcsS17Kv6-1">
          <mxGeometry relative="1" as="geometry" />
        </mxCell>
        <mxCell id="F9UBOT8fLvM2I1Nvsxj9-151" value="Terms" style="rounded=0;whiteSpace=wrap;html=1;" parent="1" vertex="1">
          <mxGeometry x="727" y="595.33" width="120" height="40" as="geometry" />
        </mxCell>
        <mxCell id="F9UBOT8fLvM2I1Nvsxj9-152" value="&lt;u&gt;Id&lt;/u&gt;" style="ellipse;whiteSpace=wrap;html=1;" parent="1" vertex="1">
          <mxGeometry x="867.8499999999999" y="538.75" width="40" height="25" as="geometry" />
        </mxCell>
        <mxCell id="F9UBOT8fLvM2I1Nvsxj9-153" value="Content" style="ellipse;whiteSpace=wrap;html=1;" parent="1" vertex="1">
          <mxGeometry x="907.8499999999998" y="555" width="62.56" height="30.42" as="geometry" />
        </mxCell>
        <mxCell id="F9UBOT8fLvM2I1Nvsxj9-154" value="Date" style="ellipse;whiteSpace=wrap;html=1;" parent="1" vertex="1">
          <mxGeometry x="919.72" y="585.4200000000001" width="60" height="24.67" as="geometry" />
        </mxCell>
        <mxCell id="F9UBOT8fLvM2I1Nvsxj9-155" style="rounded=0;orthogonalLoop=1;jettySize=auto;html=1;exitX=0;exitY=0.5;exitDx=0;exitDy=0;endArrow=none;endFill=0;entryX=1;entryY=0.25;entryDx=0;entryDy=0;" parent="1" source="F9UBOT8fLvM2I1Nvsxj9-153" target="F9UBOT8fLvM2I1Nvsxj9-151" edge="1">
          <mxGeometry relative="1" as="geometry">
            <mxPoint x="880.17" y="607.25" as="targetPoint" />
          </mxGeometry>
        </mxCell>
        <mxCell id="F9UBOT8fLvM2I1Nvsxj9-159" style="edgeStyle=orthogonalEdgeStyle;rounded=0;orthogonalLoop=1;jettySize=auto;html=1;exitX=0.5;exitY=0;exitDx=0;exitDy=0;entryX=0.75;entryY=1;entryDx=0;entryDy=0;endArrow=none;endFill=0;" parent="1" source="F9UBOT8fLvM2I1Nvsxj9-161" target="F9UBOT8fLvM2I1Nvsxj9-140" edge="1">
          <mxGeometry relative="1" as="geometry">
            <Array as="points">
              <mxPoint x="787" y="480" />
              <mxPoint x="740" y="480" />
            </Array>
          </mxGeometry>
        </mxCell>
        <mxCell id="F9UBOT8fLvM2I1Nvsxj9-160" style="edgeStyle=orthogonalEdgeStyle;rounded=0;orthogonalLoop=1;jettySize=auto;html=1;exitX=0.5;exitY=1;exitDx=0;exitDy=0;entryX=0.5;entryY=0;entryDx=0;entryDy=0;shape=link;" parent="1" source="F9UBOT8fLvM2I1Nvsxj9-161" target="F9UBOT8fLvM2I1Nvsxj9-151" edge="1">
          <mxGeometry relative="1" as="geometry" />
        </mxCell>
        <mxCell id="F9UBOT8fLvM2I1Nvsxj9-161" value="&lt;div&gt;CreatedBy&lt;/div&gt;" style="rhombus;whiteSpace=wrap;html=1;" parent="1" vertex="1">
          <mxGeometry x="752" y="490" width="70" height="65" as="geometry" />
        </mxCell>
        <mxCell id="F9UBOT8fLvM2I1Nvsxj9-162" value="1" style="text;html=1;align=center;verticalAlign=middle;whiteSpace=wrap;rounded=0;" parent="1" vertex="1">
          <mxGeometry x="726.9999999999999" y="464" width="8" height="10" as="geometry" />
        </mxCell>
        <mxCell id="F9UBOT8fLvM2I1Nvsxj9-163" value="N" style="text;html=1;align=center;verticalAlign=middle;whiteSpace=wrap;rounded=0;" parent="1" vertex="1">
          <mxGeometry x="773.1699999999998" y="581.25" width="8" height="10" as="geometry" />
        </mxCell>
        <mxCell id="F9UBOT8fLvM2I1Nvsxj9-164" value="CreatedBy" style="rhombus;whiteSpace=wrap;html=1;" parent="1" vertex="1">
          <mxGeometry x="605" y="495" width="70" height="60" as="geometry" />
        </mxCell>
        <mxCell id="F9UBOT8fLvM2I1Nvsxj9-165" value="N" style="text;html=1;align=center;verticalAlign=middle;whiteSpace=wrap;rounded=0;" parent="1" vertex="1">
          <mxGeometry x="624.31" y="580.2499999999999" width="9.94" height="11" as="geometry" />
        </mxCell>
        <mxCell id="F9UBOT8fLvM2I1Nvsxj9-166" value="1" style="text;html=1;align=center;verticalAlign=middle;whiteSpace=wrap;rounded=0;" parent="1" vertex="1">
          <mxGeometry x="668" y="459" width="9" height="20" as="geometry" />
        </mxCell>
        <mxCell id="F9UBOT8fLvM2I1Nvsxj9-174" style="rounded=0;orthogonalLoop=1;jettySize=auto;html=1;exitX=0;exitY=0.5;exitDx=0;exitDy=0;entryX=1;entryY=1;entryDx=0;entryDy=0;endArrow=none;endFill=0;" parent="1" source="F9UBOT8fLvM2I1Nvsxj9-173" target="F9UBOT8fLvM2I1Nvsxj9-151" edge="1">
          <mxGeometry relative="1" as="geometry" />
        </mxCell>
        <mxCell id="F9UBOT8fLvM2I1Nvsxj9-173" value="Language" style="ellipse;whiteSpace=wrap;html=1;" parent="1" vertex="1">
          <mxGeometry x="867.85" y="642.4600000000002" width="63.75" height="26.79" as="geometry" />
        </mxCell>
        <mxCell id="Zon8c4V3Af2gcsS17Kv6-1" value="Reason" style="ellipse;whiteSpace=wrap;html=1;" vertex="1" parent="1">
          <mxGeometry x="906.66" y="615.6700000000002" width="63.75" height="26.79" as="geometry" />
        </mxCell>
        <mxCell id="Zon8c4V3Af2gcsS17Kv6-3" value="Reason" style="ellipse;whiteSpace=wrap;html=1;" vertex="1" parent="1">
          <mxGeometry x="459.99999999999994" y="608.5400000000001" width="63.75" height="26.79" as="geometry" />
        </mxCell>
      </root>
    </mxGraphModel>
  </diagram>
</mxfile>
